<svg width="65" height="54" viewBox="0 0 65 54" fill="none" xmlns="http://www.w3.org/2000/svg">
<mask id="mask0_9_5086" style="mask-type:luminance" maskUnits="userSpaceOnUse" x="33" y="0" width="10" height="21">
<path d="M33.3789 0H42.9852V20.7257H33.3789V0Z" fill="white"/>
</mask>
<g mask="url(#mask0_9_5086)">
<path d="M35.0482 19.1699V15.2847L38.7733 13.5314C40.0065 12.951 40.9822 12.1326 41.6508 11.1543C42.3194 10.1774 42.681 8.89977 42.681 7.67304V0L41.6781 0.507148L37.4293 2.63896C36.2524 3.2254 35.3194 4.04372 34.6849 5.00266C34.0521 5.96759 33.7109 7.8376 33.7109 9.02842V12.6203L34.3437 12.3211C34.7906 12.1132 35.055 11.7287 35.055 11.2829V9.02842C35.055 8.04554 35.333 7.13447 35.8481 6.35206C36.3649 5.57114 37.1308 4.90542 38.1047 4.41622L41.3506 2.78557V7.67304C41.3506 8.67985 41.0589 9.62084 40.5148 10.4152C39.9724 11.2156 39.1707 11.8813 38.161 12.3585L34.4273 14.1119C33.9821 14.3183 33.7178 14.7043 33.7178 15.1501V20.5013L34.3506 20.2021C34.7906 20.0002 35.0482 19.6157 35.0482 19.1699Z" fill="#BF202F"/>
</g>
<mask id="mask1_9_5086" style="mask-type:luminance" maskUnits="userSpaceOnUse" x="21" y="0" width="11" height="21">
<path d="M21.5898 0H31.1961V20.7257H21.5898V0Z" fill="white"/>
</mask>
<g mask="url(#mask1_9_5086)">
<path d="M25.8003 13.5372L29.5254 15.2905V19.1756C29.5254 19.6214 29.7847 20.0059 30.2367 20.2138L30.8712 20.513V15.1618C30.8712 14.716 30.6051 14.3315 30.1599 14.1236L26.4262 12.3703C25.4165 11.893 24.6165 11.2273 24.0724 10.4269C23.53 9.63256 23.2367 8.69157 23.2367 7.68476V2.79729L26.4825 4.42794C27.4513 4.91714 28.2172 5.58286 28.7391 6.36528C29.2542 7.14619 29.5339 8.05726 29.5339 9.04014V11.2946C29.5339 11.7404 29.7983 12.1249 30.2435 12.3329L30.878 12.6321V9.04014C30.878 7.84932 30.5369 5.97931 29.9024 5.01438C29.261 4.04945 28.3349 3.23712 27.158 2.65068L22.9092 0.518866L21.9062 0.0117188V7.68476C21.9062 8.9055 22.2678 10.1831 22.9365 11.166C23.5914 12.1384 24.5671 12.9567 25.8003 13.5372Z" fill="#BF202F"/>
</g>
<path d="M15.2136 16.9645L17.1836 17.9593L18.7648 18.7597L18.7869 18.1314C18.8006 17.6856 18.5567 17.2936 18.1183 17.0677L17.8591 16.9391L15.889 15.9442C14.9202 15.455 14.1544 14.7833 13.6393 14.0009C13.1242 13.2185 12.8512 12.3029 12.8581 11.3185L12.8734 8.03929L17.7004 10.4823C18.6965 10.9894 19.476 11.6791 19.9911 12.4914C20.5062 13.3052 20.7706 14.2447 20.7297 15.253L20.5966 18.9676C20.583 19.4135 20.8269 19.8054 21.2653 20.0253L26.5528 22.7002L26.5733 22.0644C26.5869 21.6186 26.343 21.2281 25.9046 21.0082L22.0669 19.0649L22.2 15.3578C22.2477 14.1355 21.9271 12.9806 21.2943 11.9858C20.6597 10.9894 19.5801 10.0724 18.3759 9.46199L12.5391 6.51186L10.7908 5.62622L10.784 6.63902L10.7618 10.9341C10.755 12.1249 11.0961 13.2379 11.7238 14.2029C12.3651 15.1738 14.0367 16.3646 15.2136 16.9645Z" fill="#BF202F"/>
<mask id="mask2_9_5086" style="mask-type:luminance" maskUnits="userSpaceOnUse" x="0" y="17" width="26" height="10">
<path d="M0.375 17.6621H25.5198V26.4706H0.375V17.6621Z" fill="white"/>
</mask>
<g mask="url(#mask2_9_5086)">
<path d="M7.96688 25.2594C9.17107 25.8712 10.6141 26.2303 11.9155 26.2183C13.2186 26.2003 14.5132 25.8712 15.7054 25.2234L19.2993 23.2682L23.137 25.21C23.5753 25.4314 24.0836 25.4239 24.5152 25.192L25.1292 24.8569L19.8417 22.1806C19.4033 21.9606 18.895 21.9666 18.4635 22.1985L14.8629 24.1598C13.8872 24.6909 12.828 24.9661 11.7688 24.9781C10.7113 24.9901 9.63842 24.7462 8.64232 24.2451L3.81531 21.8021L7.04753 20.152C8.01464 19.6583 9.05338 19.407 10.0836 19.407C11.1155 19.407 12.1526 19.6508 13.1214 20.14L15.0914 21.1363L15.349 21.2635C15.789 21.4909 16.2973 21.4774 16.7288 21.2456L17.3412 20.9164L15.76 20.1161L13.79 19.1197C12.6131 18.5273 10.5987 17.8496 9.32458 17.8496C8.05728 17.8556 6.78998 18.1548 5.61307 18.7532L1.37793 20.9164L0.375 21.4296L2.1233 22.3152L7.96688 25.2594Z" fill="#BF202F"/>
</g>
<path d="M22.0601 35.023L25.8978 33.0797C26.3362 32.8598 26.5869 32.4693 26.5664 32.0235L26.546 31.3877L21.2653 34.0641C20.8269 34.29 20.5762 34.6804 20.5898 35.1202L20.7229 38.8348C20.757 39.8372 20.4994 40.7841 19.9843 41.5965C19.4692 42.4088 18.688 43.0985 17.6919 43.6056L12.8666 46.0501L12.8513 42.7693C12.8444 41.785 13.1242 40.8754 13.6324 40.087C14.1476 39.3046 14.9066 38.6389 15.8822 38.1437L17.8522 37.1488L18.1098 37.0202C18.5499 36.7943 18.8006 36.4098 18.7801 35.958L18.7579 35.3282L17.1768 36.1286L15.2068 37.1234C14.0299 37.7173 12.3566 38.9141 11.7238 39.8791C11.0893 40.844 10.755 41.957 10.7618 43.1478L10.784 47.4429L10.7908 48.4572L12.5391 47.57L18.3691 44.6199C19.5732 44.0095 20.6529 43.0925 21.2874 42.0961C21.9202 41.1013 22.2409 39.9464 22.1914 38.7241L22.0601 35.023Z" fill="#BF202F"/>
<mask id="mask3_9_5086" style="mask-type:luminance" maskUnits="userSpaceOnUse" x="0" y="27" width="26" height="10">
<path d="M0.375 27.6191H25.5198V36.4277H0.375V27.6191Z" fill="white"/>
</mask>
<g mask="url(#mask3_9_5086)">
<path d="M15.762 33.9769L17.3431 33.1765L16.7308 32.8474C16.2993 32.6155 15.791 32.6036 15.3509 32.8295L15.0934 32.9566L13.1234 33.953C12.1545 34.4422 11.109 34.692 10.0856 34.686C9.05536 34.686 8.01662 34.4362 7.04951 33.941L3.81729 32.2909L8.6443 29.8479C9.6404 29.3408 10.7133 29.0969 11.7708 29.1149C12.83 29.1268 13.896 29.4021 14.8648 29.9332L18.4655 31.8944C18.897 32.1323 19.4053 32.1323 19.8436 31.9124L25.1312 29.2375L24.5171 28.9009C24.0856 28.669 23.5773 28.6631 23.139 28.883L19.3012 30.8248L15.7074 28.871C14.522 28.2232 13.2206 27.8926 11.9175 27.8747C10.616 27.8567 9.17305 28.2173 7.96886 28.8336L2.13892 31.7837L0.390625 32.6709L1.39355 33.184L5.6287 35.3457C6.79878 35.9441 8.06608 36.2433 9.34021 36.2508C10.6075 36.2508 12.6287 35.5776 13.8056 34.9792L15.762 33.9769Z" fill="#BF202F"/>
</g>
<mask id="mask4_9_5086" style="mask-type:luminance" maskUnits="userSpaceOnUse" x="33" y="33" width="10" height="22">
<path d="M33.3789 33.3657H42.9852V54.0017H33.3789V33.3657Z" fill="white"/>
</mask>
<g mask="url(#mask4_9_5086)">
<path d="M38.7809 40.551L35.054 38.7976V34.9185C35.054 34.4727 34.7896 34.0882 34.3427 33.8803L33.7099 33.5811V38.9323C33.7099 39.3781 33.9743 39.7641 34.4195 39.9705L38.1532 41.7238C39.1629 42.2011 39.9646 42.8668 40.507 43.6672C41.0511 44.4615 41.3428 45.4025 41.3428 46.4108V51.2968L38.0969 49.6662C37.1298 49.177 36.364 48.5172 35.8403 47.7363C35.3252 46.9539 35.0472 46.0428 35.0472 45.0599V42.8055C35.0472 42.3596 34.7828 41.9752 34.3359 41.7672L33.7031 41.468V45.0599C33.7031 46.2508 34.0443 48.1208 34.6771 49.0857C35.3116 50.0506 36.2446 50.863 37.4215 51.4494L41.6702 53.5827L42.6732 54.0899V46.4168C42.6732 45.1946 42.3116 43.917 41.643 42.9341C40.988 41.9497 40.0055 41.1314 38.7809 40.551Z" fill="#BF202F"/>
</g>
<mask id="mask5_9_5086" style="mask-type:luminance" maskUnits="userSpaceOnUse" x="21" y="33" width="11" height="22">
<path d="M21.5898 33.3657H31.1961V54.0017H21.5898V33.3657Z" fill="white"/>
</mask>
<g mask="url(#mask5_9_5086)">
<path d="M29.5273 34.9185V38.8036L25.8022 40.557C24.569 41.1314 23.5934 41.9572 22.9247 42.9341C22.2561 43.917 21.8945 45.1946 21.8945 46.4168V54.0899L22.8975 53.5827L27.1531 51.4494C28.33 50.863 29.263 50.0447 29.8975 49.0857C30.532 48.1208 30.8731 46.2508 30.8731 45.0599V41.468L30.2386 41.7672C29.7934 41.9752 29.5273 42.3596 29.5273 42.8055V45.0599C29.5273 46.0428 29.2493 46.9539 28.7342 47.7363C28.2191 48.5172 27.4533 49.183 26.4776 49.6662L23.2318 51.2968V46.4108C23.2318 45.4025 23.5234 44.4615 24.0675 43.6672C24.6099 42.8668 25.4116 42.2011 26.4213 41.7238L30.155 39.9705C30.6002 39.7641 30.8663 39.3781 30.8663 38.9323V33.5811L30.2318 33.8803C29.7934 34.0882 29.5273 34.4727 29.5273 34.9185Z" fill="#BF202F"/>
</g>
<mask id="mask6_9_5086" style="mask-type:luminance" maskUnits="userSpaceOnUse" x="39" y="27" width="26" height="10">
<path d="M39.0547 27.6196H64.2336V36.4281H39.0547V27.6196Z" fill="white"/>
</mask>
<g mask="url(#mask6_9_5086)">
<path d="M62.4337 31.7774L56.6037 28.8272C55.3995 28.2169 53.9583 27.8504 52.6551 27.8683C51.352 27.8863 50.0574 28.2169 48.8669 28.8632L45.2713 30.8184L41.4336 28.8766C40.9953 28.6567 40.487 28.6567 40.0554 28.8946L39.4414 29.2297L44.7289 31.906C45.1673 32.126 45.6756 32.12 46.1071 31.8881L49.7095 29.9268C50.6834 29.3957 51.7426 29.1205 52.8018 29.1085C53.8593 29.0965 54.9322 29.3404 55.9283 29.8415L60.7553 32.2845L57.5231 33.9346C56.556 34.4298 55.5172 34.6796 54.487 34.6796C53.4568 34.6796 52.418 34.4358 51.4509 33.9466L49.4792 32.9503L49.2216 32.8231C48.7833 32.5972 48.2733 32.6092 47.8418 32.841L47.2294 33.1702L48.8106 33.9705L50.7823 34.9669C51.9592 35.5593 53.9719 36.237 55.246 36.237C56.5133 36.231 57.7823 35.9318 58.9592 35.3334L63.1927 33.1702L64.1973 32.657L62.4337 31.7774Z" fill="#BF202F"/>
</g>
<path d="M49.3631 37.1235L47.3931 36.1287L45.812 35.3283L45.7983 35.9581C45.7847 36.4039 46.0269 36.7944 46.4669 37.0203L46.7245 37.149L48.6945 38.1438C49.6633 38.633 50.4292 39.3047 50.9375 40.0871C51.4543 40.8695 51.7255 41.7851 51.7186 42.7635L51.705 46.0427L46.878 43.5998C45.8819 43.0926 45.1007 42.4029 44.5856 41.5906C44.0705 40.7768 43.8061 39.8373 43.847 38.829L43.9801 35.1144C43.9937 34.6686 43.7498 34.2781 43.3046 34.0582L38.0171 31.3818L37.9966 32.0176C37.983 32.4635 38.2269 32.8539 38.6653 33.0738L42.503 35.0171L42.3648 38.7243C42.3154 39.9465 42.636 41.1014 43.2688 42.0978C43.9033 43.0926 44.983 44.0097 46.1872 44.62L52.0171 47.5702L53.7654 48.4573L53.7723 47.443L53.7944 43.148C53.8013 41.9571 53.4601 40.8441 52.8324 39.8792C52.2201 38.9142 50.5417 37.7234 49.3631 37.1235Z" fill="#BF202F"/>
<path d="M42.5153 19.0649L38.6776 21.0082C38.2392 21.2281 37.9885 21.6186 38.009 22.0644L38.0311 22.7002L43.317 20.0253C43.7553 19.7979 44.0061 19.4075 43.9924 18.9676L43.8594 15.253C43.8253 14.2447 44.0828 13.3052 44.5979 12.4914C45.1147 11.6791 45.8874 10.9894 46.8903 10.4823L51.7173 8.03929L51.731 11.3185C51.7378 12.3029 51.4598 13.2125 50.9515 14.0009C50.4347 14.7833 49.6757 15.449 48.7017 15.9442L46.73 16.9391L46.4724 17.0677C46.0341 17.2936 45.7834 17.6781 45.8038 18.1254L45.8243 18.7537L47.4054 17.9534L49.3772 16.9585C50.5541 16.3646 52.2256 15.1678 52.8584 14.2029C53.4929 13.2379 53.8272 12.1249 53.8204 10.9341L53.7999 6.63902L53.7931 5.62622L52.0448 6.51186L46.2149 9.46199C45.009 10.0724 43.9293 10.9894 43.2965 11.9858C42.662 12.9806 42.3413 14.1355 42.3908 15.3578L42.5153 19.0649Z" fill="#BF202F"/>
<mask id="mask7_9_5086" style="mask-type:luminance" maskUnits="userSpaceOnUse" x="39" y="17" width="26" height="10">
<path d="M39.0547 17.6621H64.2336V26.4706H39.0547V17.6621Z" fill="white"/>
</mask>
<g mask="url(#mask7_9_5086)">
<path d="M48.8106 20.1117L47.2294 20.912L47.8418 21.2412C48.2733 21.473 48.7833 21.4865 49.2216 21.2591L49.4792 21.132L51.4509 20.1356C52.418 19.6464 53.4636 19.3966 54.487 19.4026C55.5172 19.4026 56.556 19.6524 57.5231 20.1476L60.7553 21.7977L55.9283 24.2407C54.9322 24.7478 53.8593 24.9917 52.8018 24.9737C51.7426 24.9617 50.6766 24.6865 49.7095 24.1554L46.1071 22.1941C45.6756 21.9563 45.1673 21.9503 44.7289 22.1762L39.4414 24.8525L40.0554 25.1817C40.487 25.4135 40.9953 25.4255 41.4336 25.1996L45.2713 23.2578L48.8669 25.2116C50.0506 25.8593 51.352 26.19 52.6551 26.2079C53.9583 26.2259 55.3995 25.8653 56.6037 25.249L62.4337 22.2988L64.182 21.4132L63.179 20.8986L58.9456 18.7368C57.7738 18.1384 56.5065 17.8392 55.2324 17.8333C53.9651 17.8333 51.9456 18.505 50.767 19.1034L48.8106 20.1117Z" fill="#BF202F"/>
</g>
</svg>
